<?xml version="1.0" standalone="no"?>
<!DOCTYPE svg PUBLIC "-//W3C//DTD SVG 20010904//EN"
 "http://www.w3.org/TR/2001/REC-SVG-20010904/DTD/svg10.dtd">
<svg version="1.0" xmlns="http://www.w3.org/2000/svg"
 width="1280.000000pt" height="818.000000pt" viewBox="0 0 1280.000000 818.000000"
 preserveAspectRatio="xMidYMid meet">
<g transform="translate(0.000000,818.000000) scale(0.100000,-0.100000)"
fill="#000000" stroke="none">
<path d="M3605 7990 c-27 -28 -32 -29 -81 -24 -34 4 -64 2 -84 -6 -23 -10
-102 -110 -321 -407 -160 -216 -295 -409 -300 -427 -7 -25 -5 -46 5 -78 l15
-43 -70 -127 c-247 -445 -400 -967 -453 -1537 -8 -96 -18 -156 -26 -161 -7 -4
-8 -10 -3 -13 10 -6 8 -746 -2 -755 -3 -3 -11 9 -17 26 -7 18 -16 32 -20 32
-16 0 -89 -105 -122 -174 -67 -141 -114 -361 -136 -636 -12 -162 -18 -200 -29
-200 -5 0 -40 93 -79 208 -39 114 -91 257 -115 318 -58 142 -67 215 -74 556
l-6 266 44 41 c40 37 49 41 99 41 84 0 142 33 241 135 60 62 101 95 144 116
38 18 52 29 38 29 -28 0 -38 17 -23 35 7 9 8 15 2 15 -5 0 -15 -7 -22 -15 -30
-36 -77 -58 -180 -85 -60 -16 -124 -37 -142 -46 -48 -24 -96 -73 -103 -105 -8
-34 -63 -85 -78 -70 -13 13 7 179 44 365 35 172 50 216 76 216 10 1 30 18 45
39 18 27 37 41 60 46 91 20 163 88 242 228 32 58 63 98 94 123 62 50 71 59 45
45 -34 -18 -46 -14 -41 14 3 14 4 25 2 25 -1 0 -18 -21 -37 -47 -27 -37 -59
-62 -142 -108 -127 -72 -200 -142 -210 -201 -7 -48 -25 -86 -44 -92 -18 -6
-11 21 36 152 72 198 252 538 440 837 92 145 103 164 71 127 -28 -33 -43 -37
-27 -7 29 56 -18 -4 -99 -124 -240 -355 -415 -703 -528 -1045 -88 -266 -128
-497 -142 -807 -4 -89 -11 -150 -17 -150 -10 0 -50 112 -61 173 -5 23 -2 38
10 51 16 18 15 22 -18 65 -24 32 -36 60 -40 93 -7 54 -16 106 -39 208 -23 99
-47 345 -47 469 0 135 21 186 85 210 98 38 152 103 215 261 34 84 52 115 95
159 41 43 46 52 24 41 -33 -17 -42 -8 -34 32 5 20 -3 12 -24 -26 -41 -72 -45
-76 -131 -139 -99 -72 -167 -138 -192 -186 -33 -65 -40 -32 -23 111 29 255 76
461 110 493 21 20 22 25 10 34 -13 9 -11 23 15 96 43 123 36 123 -11 0 -45
-118 -108 -331 -138 -463 -21 -96 -26 -106 -42 -90 -9 9 -8 20 0 44 31 88 4
183 -93 337 -40 64 -61 110 -71 154 -7 35 -14 59 -14 53 -1 -5 -6 -17 -11 -25
-7 -12 -13 -11 -35 10 -26 24 -25 23 9 -50 35 -72 36 -78 36 -190 0 -174 30
-265 100 -307 20 -11 38 -37 56 -80 26 -61 26 -63 14 -160 -14 -106 -16 -392
-5 -565 9 -133 4 -135 -87 -40 -50 52 -71 83 -93 140 -15 39 -30 72 -32 72 -2
0 0 -18 3 -40 8 -47 -3 -51 -49 -18 -27 19 -24 12 22 -46 52 -65 57 -77 94
-215 21 -80 53 -172 70 -204 28 -54 80 -107 104 -107 23 0 41 -43 72 -169 41
-171 88 -333 157 -544 31 -92 54 -173 52 -179 -3 -7 -37 35 -76 93 -158 233
-294 357 -459 420 l-26 10 6 -69 c15 -177 139 -379 399 -648 90 -92 119 -116
177 -143 42 -19 84 -48 108 -74 35 -38 44 -59 81 -192 87 -312 148 -603 125
-594 -5 2 -44 45 -85 94 -262 316 -778 741 -981 809 l-49 16 -76 -42 c-185
-101 -372 -239 -372 -274 0 -30 153 -30 350 1 52 8 116 18 141 21 l47 7 27
-49 c176 -312 379 -594 569 -792 126 -131 178 -163 318 -197 62 -15 121 -31
130 -36 10 -5 31 -30 48 -54 28 -41 33 -59 45 -169 8 -68 19 -197 25 -287 l12
-164 -37 -165 c-35 -155 -47 -191 -60 -178 -3 3 -21 65 -39 139 -78 307 -194
594 -305 751 -52 75 -53 47 -6 -133 135 -510 181 -765 205 -1145 8 -136 8
-168 -5 -212 -18 -59 -35 -68 -35 -19 0 105 -24 434 -40 563 -67 523 -248
1069 -448 1349 -64 90 -60 46 27 -281 65 -244 105 -416 134 -585 34 -196 20
-206 -37 -26 -82 258 -216 549 -300 652 -54 66 -48 29 57 -377 96 -368 142
-625 172 -965 17 -191 19 -323 6 -323 -5 0 -19 33 -30 73 -72 242 -173 426
-318 578 -128 133 -198 181 -342 233 -60 22 -88 39 -144 92 -38 37 -103 88
-143 114 -68 44 -224 110 -261 110 -25 0 9 -34 97 -95 98 -69 224 -197 305
-310 140 -193 271 -519 301 -745 11 -84 -11 -58 -50 61 -92 278 -248 516 -443
678 -87 72 -135 100 -233 139 -93 36 -130 45 -130 32 0 -5 51 -47 113 -93 348
-258 552 -656 612 -1199 10 -96 11 -135 4 -145 -8 -9 -40 -13 -105 -13 l-94 0
0 -120 0 -120 6125 0 6125 0 0 120 0 120 -167 2 -168 3 -7 70 c-4 39 -14 140
-23 225 -8 85 -25 219 -37 297 l-21 142 46 233 c56 286 56 288 45 288 -10 0
-81 -147 -113 -233 -10 -26 -22 -46 -28 -44 -5 1 -26 52 -46 112 -43 127 -88
230 -107 246 -21 17 -18 -45 11 -261 56 -408 56 -408 29 -523 -13 -56 -33
-163 -45 -237 -31 -199 -34 -198 -69 30 -12 74 -32 185 -45 245 -19 91 -24
152 -29 351 -11 433 -50 668 -85 517 -15 -67 -41 -246 -41 -287 0 -33 -20 -63
-33 -49 -4 3 -7 -19 -7 -50 0 -31 -4 -57 -9 -57 -5 0 -21 19 -35 43 l-27 42 5
-75 c2 -41 16 -163 30 -270 23 -180 25 -216 20 -470 -3 -151 -9 -279 -13 -283
-5 -5 -26 -7 -47 -5 l-39 3 -6 410 c-8 493 -21 714 -50 828 -11 43 -21 47 -37
12 -7 -15 -17 -23 -26 -19 -19 7 -30 -35 -50 -186 -20 -152 -33 -295 -47 -525
-6 -104 -13 -192 -15 -194 -11 -12 -26 26 -58 144 -18 72 -41 166 -50 211
l-17 81 67 214 c156 499 164 529 145 529 -15 0 -105 -151 -174 -292 -34 -70
-67 -127 -73 -128 -17 0 -24 61 -24 225 0 180 11 282 50 473 36 175 37 186 8
152 -60 -71 -140 -287 -175 -473 -21 -116 -24 -471 -5 -632 l13 -110 -33 -95
c-18 -52 -37 -95 -42 -95 -24 0 -66 269 -73 470 -6 178 4 292 43 483 14 68 22
131 18 140 -4 9 -6 33 -4 52 2 30 0 33 -14 20 -27 -22 -82 -129 -115 -223 -41
-116 -70 -264 -79 -395 -4 -62 -12 -107 -18 -109 -10 -3 -92 215 -110 292 -4
17 -13 35 -20 40 -6 6 -31 55 -55 110 -80 186 -257 510 -289 530 -16 10 -11
-46 11 -125 11 -41 56 -187 100 -325 129 -402 169 -550 169 -621 0 -35 -4 -66
-10 -69 -11 -7 -18 8 -96 205 -31 80 -83 199 -114 265 -48 99 -59 135 -68 205
-16 132 -41 175 -57 100 -4 -17 -10 -30 -13 -30 -4 0 -19 14 -34 32 -27 33
-27 33 -28 8 0 -14 11 -65 24 -114 14 -48 23 -93 21 -99 -5 -15 -32 -327 -41
-477 -7 -130 -18 -177 -27 -120 -3 19 -9 132 -12 250 -9 358 -36 696 -62 792
-20 71 -45 8 -65 -160 -8 -74 -17 -110 -29 -121 -9 -9 -22 -34 -28 -57 -30
-111 -65 -568 -77 -992 -5 -176 -10 -252 -18 -249 -6 2 -28 71 -49 153 -109
428 -124 753 -51 1091 13 62 24 118 24 123 0 46 -80 -99 -119 -215 -52 -156
-65 -256 -65 -487 -1 -114 -4 -204 -8 -200 -4 4 -23 64 -42 134 -41 148 -90
278 -116 310 l-19 23 -1 -32 c0 -17 11 -112 24 -210 33 -238 42 -338 29 -330
-6 4 -27 54 -48 111 -20 58 -53 131 -72 163 -29 47 -41 85 -64 198 -68 334
-164 611 -292 835 -48 86 -82 129 -92 118 -3 -3 13 -74 35 -159 57 -218 114
-458 135 -569 l17 -95 -41 -101 c-22 -56 -67 -180 -98 -275 -39 -117 -59 -165
-61 -147 -2 15 20 139 48 277 28 137 50 262 48 278 -4 24 -10 15 -50 -67 -26
-52 -63 -139 -82 -194 -19 -54 -38 -101 -41 -104 -20 -20 -11 43 43 311 34
166 62 318 62 337 l0 35 -20 -25 c-11 -14 -43 -79 -71 -145 -164 -387 -269
-830 -307 -1290 l-7 -90 -93 -3 c-76 -2 -93 0 -98 13 -15 38 90 521 181 840
35 121 96 319 135 440 100 311 124 405 101 405 -18 0 -124 -179 -217 -367 -52
-106 -98 -193 -103 -193 -4 0 -13 31 -20 69 -6 38 -16 82 -22 98 -10 26 -12
27 -19 8 -5 -11 -9 -46 -9 -77 -2 -118 -32 -292 -86 -488 -44 -159 -230 -717
-246 -736 -17 -21 -39 -17 -39 7 0 11 27 104 59 207 109 343 175 607 206 817
31 207 17 475 -28 562 l-15 28 -6 -35 c-3 -19 -7 -78 -10 -130 -8 -130 -30
-270 -66 -413 -29 -114 -47 -164 -51 -142 -1 6 -3 71 -4 145 -1 140 -16 240
-42 300 -16 35 -16 35 -23 10 -5 -14 -8 -55 -9 -91 -1 -74 -23 -238 -46 -349
-29 -138 -142 -525 -164 -559 -14 -22 -18 -1 -25 139 -21 407 -98 796 -218
1100 -89 227 -209 442 -233 418 -3 -3 9 -59 25 -124 84 -323 101 -390 129
-524 34 -168 66 -381 81 -559 13 -141 15 -548 5 -699 -8 -108 -17 -126 -57
-120 -22 3 -23 7 -21 73 0 39 4 203 8 365 5 203 4 347 -4 460 -37 495 -148
968 -326 1385 -87 204 -215 426 -280 485 l-28 25 6 -52 c3 -28 36 -157 72
-285 102 -357 195 -760 195 -842 0 -45 -12 -24 -65 109 -59 149 -133 299 -192
388 -70 105 -80 85 -39 -74 127 -493 155 -615 190 -829 41 -250 78 -692 59
-711 -7 -7 -23 29 -52 116 -74 226 -173 395 -318 546 -46 47 -83 91 -83 98 0
6 -7 11 -16 11 -9 0 -41 16 -72 35 -32 19 -95 48 -141 65 -69 25 -97 42 -147
90 -99 92 -187 150 -295 192 -148 58 -165 48 -55 -32 49 -36 111 -85 138 -110
l48 -45 -12 -84 c-7 -48 -18 -85 -25 -88 -7 -3 -30 8 -50 24 -58 45 -104 71
-174 97 -61 23 -64 25 -67 60 -4 43 -8 44 -34 11 -11 -14 -26 -25 -34 -25 -9
0 -12 -5 -8 -11 8 -14 -167 -360 -181 -355 -24 7 -32 251 -15 427 6 57 24 170
40 252 35 174 36 185 15 167 -48 -40 -136 -260 -169 -421 -38 -188 -44 -428
-15 -684 12 -99 11 -101 -21 -203 -19 -63 -36 -102 -43 -99 -18 5 -55 221 -69
395 -14 182 -3 350 36 537 23 111 30 245 14 245 -10 0 -42 -49 -76 -115 -65
-132 -115 -331 -130 -526 -4 -52 -11 -94 -17 -93 -5 0 -31 56 -56 125 -118
317 -307 708 -398 820 -51 63 -37 -16 52 -296 114 -362 148 -471 192 -630 86
-313 171 -719 163 -783 -2 -16 -23 53 -51 166 -55 222 -127 451 -199 632 -67
168 -195 427 -260 525 -48 73 -53 78 -56 53 -2 -16 -7 -28 -11 -28 -5 0 -24
26 -44 59 -20 32 -43 64 -52 71 -13 11 -15 8 -15 -18 0 -36 28 -135 120 -422
80 -252 118 -377 155 -515 75 -276 163 -704 150 -726 -8 -12 -182 -12 -190 1
-3 5 -10 60 -15 122 -26 306 -82 595 -176 905 -64 211 -191 513 -216 513 -13
0 -4 -55 58 -358 74 -359 72 -403 -6 -192 -44 120 -107 257 -121 266 -15 9
-10 -24 40 -276 81 -402 79 -421 -13 -140 -32 96 -73 212 -92 258 -19 45 -34
96 -34 112 0 46 45 251 116 526 35 138 64 259 64 268 0 32 -19 15 -64 -56
-132 -213 -249 -533 -317 -871 -20 -101 -38 -161 -54 -188 -23 -36 -69 -142
-110 -253 -31 -85 -34 -31 -9 164 13 102 28 223 34 269 6 46 8 86 5 89 -17 18
-78 -126 -126 -301 -55 -198 -58 -197 -57 13 0 102 -6 224 -12 270 -23 169
-77 335 -140 430 -38 56 -38 43 -5 -115 54 -260 55 -485 4 -791 -21 -127 -91
-419 -103 -431 -3 -3 -9 -4 -12 -1 -3 4 -10 140 -15 305 -13 437 -50 882 -79
959 -6 15 -17 32 -24 38 -8 7 -20 61 -30 131 -18 132 -33 188 -47 180 -29 -18
-55 -263 -69 -640 -14 -369 -20 -465 -29 -465 -5 0 -13 75 -20 167 -30 442
-64 703 -91 703 -40 0 -71 -398 -91 -1185 -6 -231 -14 -424 -18 -428 -4 -4
-46 -7 -92 -5 l-84 3 -3 91 c-2 83 1 105 42 245 54 182 99 379 116 504 25 175
12 421 -25 472 -11 15 -14 6 -19 -62 -12 -156 -37 -309 -72 -443 -47 -183 -59
-194 -70 -60 -4 53 -1 101 14 178 35 176 47 355 33 479 -11 110 -34 206 -50
216 -5 3 -12 -30 -15 -72 -9 -118 -26 -266 -31 -271 -3 -3 -11 1 -19 7 -12 11
-16 6 -25 -26 -5 -21 -15 -86 -22 -146 -6 -59 -16 -107 -20 -107 -5 0 -9 33
-9 73 0 115 -37 307 -59 307 -5 0 -12 -39 -15 -87 -8 -109 -24 -245 -31 -251
-11 -12 -14 11 -25 200 -10 190 -10 202 14 345 61 367 101 715 121 1078 l7
110 54 82 c57 88 102 122 208 160 63 23 122 80 191 187 69 106 192 357 245
500 42 114 79 270 67 282 -17 17 -82 -30 -192 -140 -136 -136 -223 -242 -327
-396 -102 -151 -138 -230 -138 -302 0 -55 -3 -61 -41 -103 -23 -25 -45 -45
-50 -45 -5 0 -9 100 -9 223 0 264 -12 514 -41 847 -24 268 -24 266 27 540 100
534 299 1042 557 1418 42 60 54 72 78 72 15 0 39 4 52 9 20 8 277 273 536 555
l64 68 -6 57 c-4 39 -2 62 6 71 10 12 9 12 -4 2 -13 -10 -24 -9 -54 4 -77 32
-79 31 -382 -292 -153 -163 -284 -307 -292 -321 -16 -31 -9 -88 15 -114 16
-17 11 -27 -88 -176 -237 -357 -357 -621 -478 -1053 -46 -166 -54 -169 -51
-20 12 587 183 1279 431 1742 l51 96 54 -5 c33 -4 66 -1 84 7 23 9 101 108
307 388 153 207 286 391 297 409 21 37 20 94 -4 150 -12 31 -12 34 16 63 16
16 26 30 24 30 -3 0 -18 -13 -34 -30z m-2205 -2155 c0 -8 -4 -15 -10 -15 -5 0
-10 7 -10 15 0 8 5 15 10 15 6 0 10 -7 10 -15z m-223 -1407 c51 -52 146 -190
158 -229 15 -45 -11 -30 -85 49 -72 78 -150 191 -150 219 0 26 27 12 77 -39z
m1073 -66 c0 -87 -64 -332 -86 -332 -11 0 4 186 20 260 18 81 44 143 56 135 6
-3 10 -32 10 -63z m73 -737 c1 -408 -14 -677 -64 -1102 -30 -252 -39 -262 -70
-77 -30 185 -66 361 -119 580 -48 195 -49 201 -35 248 8 26 28 63 45 82 16 19
36 47 43 62 44 87 157 497 157 570 0 13 5 33 12 45 11 22 12 21 21 -8 5 -16 9
-196 10 -400z m3577 -2035 c32 -22 93 -73 135 -115 64 -61 76 -78 71 -97 -3
-13 -6 -47 -6 -76 0 -61 -10 -61 -42 1 -22 41 -23 41 -26 14 -2 -15 11 -132
27 -260 30 -220 31 -247 29 -522 l-3 -290 -38 -3 c-21 -2 -44 2 -51 7 -11 9
-15 108 -19 454 -5 433 -16 633 -40 751 -13 65 -27 79 -42 44 -6 -13 -17 -22
-27 -20 -13 2 -19 -10 -27 -50 -28 -139 -53 -378 -71 -682 -5 -93 -12 -171
-15 -174 -12 -12 -24 20 -59 153 -70 274 -70 262 -30 395 28 93 141 445 159
498 6 18 10 16 75 -28z m413 -37 c86 -112 104 -151 117 -249 7 -50 11 -97 8
-105 -3 -8 -23 12 -48 47 -25 32 -62 81 -84 108 -38 46 -41 54 -51 148 -15
132 -9 137 58 51z m-5419 -133 c140 -145 238 -313 310 -531 57 -171 100 -431
94 -571 l-3 -73 -95 0 -95 0 -11 180 c-28 428 -124 759 -300 1026 -24 36 -44
72 -44 78 0 23 61 -23 144 -109z m5708 52 c51 -47 59 -74 33 -108 -15 -18 -16
-18 -28 -1 -81 124 -104 163 -100 170 7 11 42 -11 95 -61z m169 -194 c110
-156 200 -375 244 -592 26 -129 53 -401 42 -429 -5 -14 -21 -17 -95 -17 -60 0
-93 4 -99 13 -6 6 -13 86 -16 177 -9 262 -52 482 -137 707 -36 96 -39 109 -29
151 18 83 24 82 90 -10z m-2694 -199 c80 -394 136 -781 120 -823 -6 -14 -20
-16 -89 -14 l-83 3 -7 45 c-15 101 -20 499 -9 670 19 284 31 305 68 119z
m5173 -14 c12 -132 15 -579 4 -714 -4 -47 -11 -92 -17 -98 -6 -8 -36 -13 -82
-13 -46 0 -76 5 -83 13 -11 13 2 160 33 372 20 133 101 550 110 566 15 23 24
-10 35 -126z m-6823 93 c-3 -8 -6 -5 -6 6 -1 11 2 17 5 13 3 -3 4 -12 1 -19z
m8099 -130 c74 -269 165 -734 151 -771 -5 -14 -20 -17 -91 -17 -74 0 -87 3
-96 19 -6 12 -10 105 -11 228 0 114 -4 309 -8 433 -11 303 -3 318 55 108z
m-4188 5 c22 -49 55 -133 72 -187 l32 -99 -20 -126 c-12 -69 -24 -145 -28
-168 -5 -41 -21 -57 -28 -30 -2 6 -9 55 -15 107 -14 111 -32 208 -60 337 -25
109 -29 253 -7 253 7 0 31 -39 54 -87z m-4218 -190 c0 -48 -12 -103 -21 -97
-10 6 -12 107 -2 117 14 14 23 6 23 -20z m1681 -418 l4 -180 -25 0 c-23 0 -25
4 -28 53 -4 63 13 289 24 316 15 39 22 -12 25 -189z m5693 178 c9 -33 29 -332
23 -347 -7 -18 -42 -21 -53 -5 -9 15 6 369 16 369 5 0 11 -8 14 -17z m-3898
-183 c25 -84 43 -159 40 -167 -7 -17 -100 -18 -114 0 -26 30 -35 108 -23 186
16 107 30 156 42 144 6 -6 30 -79 55 -163z m5758 0 c25 -89 44 -165 41 -170
-9 -15 -101 -12 -114 4 -6 7 -17 34 -25 60 -13 43 -13 58 6 157 13 67 25 109
32 109 7 0 32 -67 60 -160z m-8931 67 c16 -43 -37 -239 -66 -245 -31 -6 -29
25 8 142 35 111 47 132 58 103z"/>
</g>
</svg>
